<svg xmlns="http://www.w3.org/2000/svg" xmlns:xlink="http://www.w3.org/1999/xlink" viewBox="0 0 4401.02 1001"><defs><style>.cls-1{fill:none;}.cls-2{font-size:520.45px;fill:#fff;font-family:Comfortaa-Regular, Comfortaa;}.cls-3{font-family:Comfortaa-Bold, Comfortaa;font-weight:700;}.cls-4{fill:#3a3a3a;}.cls-5{clip-path:url(#clip-path);}.cls-6{fill:#1fc76a;}</style><clipPath id="clip-path"><path class="cls-1" d="M898,689.72V310A120.15,120.15,0,0,0,837.9,206L509.06,16.1a120.1,120.1,0,0,0-120.14,0L60.07,206A120.17,120.17,0,0,0,0,310V689.72a120.15,120.15,0,0,0,60.07,104L388.92,983.63a120.14,120.14,0,0,0,120.14,0L837.9,793.77A120.14,120.14,0,0,0,898,689.72Z"/></clipPath></defs><title>Horizontal Expanded</title><g id="Logo_Text_Horizontal" data-name="Logo Text Horizontal"><text class="cls-2" transform="translate(1191 715.41)">NODE<tspan class="cls-3" x="1669.59" y="0">FLAIR</tspan></text><path class="cls-4" d="M1158.23,706a20.5,20.5,0,0,1-6-15.16V310.19a21.14,21.14,0,0,1,37.36-13.54l258.8,340V310.19a20.06,20.06,0,0,1,6.23-15.16,21,21,0,0,1,36,15.16V690.81a20.82,20.82,0,0,1-6,14.89,20.1,20.1,0,0,1-15.16,6.23q-10.85,0-15.7-7l-259.35-340V690.81a20.78,20.78,0,0,1-6,14.89,20.1,20.1,0,0,1-15.16,6.23A20.5,20.5,0,0,1,1158.23,706Z"/><path class="cls-4" d="M1683.41,689.19a202,202,0,0,1-77.16-77.7q-27.88-49.53-27.88-111.26t27.88-111a202.65,202.65,0,0,1,77.16-77.43q49.26-28.14,111-28.15,61.17,0,110.72,28.15a202.09,202.09,0,0,1,77.42,77.43q27.89,49.27,27.89,111t-27.89,111.26a201.42,201.42,0,0,1-77.42,77.7q-49.55,28.15-110.72,28.15Q1732.68,717.34,1683.41,689.19Zm200-35.2A167.91,167.91,0,0,0,1946,590.38q22.74-40.33,22.74-90.15,0-49.26-22.74-89.61A168.05,168.05,0,0,0,1883.46,347q-39.8-23.28-89.06-23.28-49.82,0-89.61,23.28a168,168,0,0,0-62.53,63.61q-22.74,40.35-22.74,89.61,0,49.82,22.74,90.15A167.88,167.88,0,0,0,1704.79,654q39.8,23.29,89.61,23.28Q1843.66,677.27,1883.46,654Z"/><path class="cls-4" d="M2103.54,706a20.53,20.53,0,0,1-5.95-15.16V310.19a20.38,20.38,0,0,1,21.11-21.12h97.46q61.17,0,109.37,27.08a192,192,0,0,1,75,75q26.8,47.92,26.8,109.1t-26.8,109.37a191.4,191.4,0,0,1-75,75.25q-48.2,27.09-109.37,27.08H2118.7A20.5,20.5,0,0,1,2103.54,706ZM2216.16,674q49.26,0,87.71-22.47a158.83,158.83,0,0,0,60.1-62q21.65-39.51,21.66-89.33T2364,410.89a157.1,157.1,0,0,0-60.1-61.72Q2265.42,327,2216.16,327h-76.34V674Z"/><path class="cls-4" d="M2520.7,705.7a20.31,20.31,0,0,1-6.22-14.89V310.19A20.09,20.09,0,0,1,2520.7,295a20.8,20.8,0,0,1,14.89-6h253.93a20.57,20.57,0,0,1,15.16,6,19.91,19.91,0,0,1,6,14.62,19,19,0,0,1-6,14.35q-6,5.69-15.16,5.68H2556.71V479.11h169.46a20.53,20.53,0,0,1,15.16,6,19.91,19.91,0,0,1,6,14.62,19.44,19.44,0,0,1-6.23,14.62,20.79,20.79,0,0,1-14.89,6H2556.71V671.32h232.81q9.2,0,15.16,5.68a19,19,0,0,1,6,14.35,19.88,19.88,0,0,1-6,14.62,20.53,20.53,0,0,1-15.16,6H2535.59A20.33,20.33,0,0,1,2520.7,705.7Z"/><path class="cls-4" d="M2863.15,703.8a27.18,27.18,0,0,1-8.12-20V317.23q0-12.45,8.12-20.3a27.72,27.72,0,0,1,20-7.86H3127.9q12.45,0,20,7.31t7.57,19.22q0,11.37-7.57,18.41t-20,7H2911.33V472.62h155.39q11.91,0,19.76,7.31t7.85,18.68q0,11.37-7.85,18.67t-19.76,7.31H2911.33V683.77a28.32,28.32,0,0,1-48.18,20Z"/><path class="cls-4" d="M3235.37,703.8a27.71,27.71,0,0,1-7.85-20V317.23a27.22,27.22,0,0,1,8.12-20,26.6,26.6,0,0,1,19.5-8.13,27.75,27.75,0,0,1,28.15,28.16V655.62h196a28.16,28.16,0,1,1,0,56.31H3255.14A26.32,26.32,0,0,1,3235.37,703.8Z"/><path class="cls-4" d="M3894,684.31a26.55,26.55,0,0,1-8.12,19.49,27.21,27.21,0,0,1-20,8.13,28.49,28.49,0,0,1-15.43-4.61,26.13,26.13,0,0,1-10.56-12.72l-30.32-75.8H3615.18l-30.86,75.8a30,30,0,0,1-10.83,12.72,27.16,27.16,0,0,1-15.16,4.61,25.89,25.89,0,0,1-19.76-8.4,27.94,27.94,0,0,1-7.85-19.76,35.25,35.25,0,0,1,2.71-12.45L3685.57,308q8.11-18.94,26.53-18.95,19.49,0,26.53,18.95L3891.31,672.4A34.49,34.49,0,0,1,3894,684.31ZM3634.13,572.24H3790.6l-77.42-192.75Z"/><path class="cls-4" d="M3963.85,703.8a27.22,27.22,0,0,1-8.12-20V317.23q0-12.45,8.12-20.3a27.72,27.72,0,0,1,20-7.86q12.45,0,20.31,7.86t7.85,20.3V683.77a27.75,27.75,0,0,1-7.85,20q-7.86,8.13-20.31,8.13A27.19,27.19,0,0,1,3963.85,703.8Z"/><path class="cls-4" d="M4400.23,686.48a24.65,24.65,0,0,1-7.31,18.14q-7.31,7.3-19.76,7.31-15.72,0-24.37-13.54L4255.67,549h-79.05V683.77a27.71,27.71,0,0,1-7.85,20q-7.86,8.13-20.3,8.13a27.75,27.75,0,0,1-28.16-28.16V317.23q0-12.45,8.12-20.3a27.74,27.74,0,0,1,20-7.86h97.45q40.07,0,71.74,16.79a121.48,121.48,0,0,1,49.27,47.1q17.59,30.33,17.6,69.3,0,38.46-19.49,68.22T4312,535.42l82.83,133.19A33.3,33.3,0,0,1,4400.23,686.48ZM4245.92,497q36.81,0,60.64-20.84t23.82-53.88q0-35.73-23.82-58.47t-60.64-22.74h-69.3V497Z"/><g class="cls-5"><path class="cls-6" d="M364.08,584.16a20.47,20.47,0,0,1,20.47-20.46,19.54,19.54,0,0,1,2.78.28L433,454.69,307.83,274.57a70.66,70.66,0,0,1-22.07,3.55c-.76,0-1.49-.09-2.25-.12L209.73,651.47a71,71,0,0,1,25.69,21.35l129.71-82.48A20.38,20.38,0,0,1,364.08,584.16Z"/><path class="cls-6" d="M595.67,694.65c.64-1,1.32-1.91,2-2.85L440,464.84,397,568a19.88,19.88,0,0,1,7.39,21.15Z"/><path class="cls-6" d="M174,644.42l74.48-377a71.41,71.41,0,0,1-15.09-12.56L115.67,347.14a20.13,20.13,0,0,1,.71,5.06,20.4,20.4,0,0,1-11.76,18.45l63.17,274.44C169.82,644.78,171.88,644.55,174,644.42Z"/><path class="cls-6" d="M687,357.1a70.91,70.91,0,0,1,53-68.56L711.25,133.4l-49-28.31-78.83,44.78a20.21,20.21,0,0,1-19.72,25.67,19.69,19.69,0,0,1-2.78-.28L461.42,413.52,636.15,665.05a70.89,70.89,0,0,1,18.94-2.64c.16,0,.32,0,.49,0l66.71-244.05A70.88,70.88,0,0,1,687,357.1Z"/><path class="cls-6" d="M233.71,893.41l-37.3-109.66A70.51,70.51,0,0,1,117,750.38l-71.65,34.3Z"/><path class="cls-6" d="M750.19,286.59a70.61,70.61,0,0,1,65.7,29.65l80.05-48A72.89,72.89,0,0,0,861,219.87l-137.9-79.62Z"/><path class="cls-6" d="M724.83,746.2a71,71,0,0,1-53.74,56.25l12.4,79.86L861,779.82a72.8,72.8,0,0,0,19.67-16.65Z"/><path class="cls-6" d="M555.44,136.35a20.37,20.37,0,0,1,22.84,4.43l73.47-41.73L485.44,3a72.84,72.84,0,0,0-37.85-9.72Z"/><path class="cls-6" d="M821.25,325.18a70.86,70.86,0,0,1-63.31,102.88c-.17,0-.33,0-.49,0L690.73,672.09A70.83,70.83,0,0,1,726,733.37c0,.83-.09,1.64-.12,2.47l161.6,17.59a72.87,72.87,0,0,0,10-36.75V283c0-1.18-.06-2.35-.12-3.51Z"/><path class="cls-6" d="M660.79,804c-1.89.15-3.78.29-5.7.29a70.86,70.86,0,0,1-64.44-100.55L399.33,598.26a20.29,20.29,0,0,1-28.64.88L241.08,681.56a71,71,0,0,1-34.79,98.91L247.4,901.32l165.13,95.34a72.93,72.93,0,0,0,72.91,0L673.82,887.9Z"/><path class="cls-6" d="M112.54,741a70.8,70.8,0,0,1,45.08-93.64L94.36,372.51a20.26,20.26,0,0,1-16-30.71L2.81,264.94A72.53,72.53,0,0,0,.51,283V716.68a72.88,72.88,0,0,0,34,61.64Z"/><path class="cls-6" d="M85.81,334.5a20.15,20.15,0,0,1,24.73,3.42l116.32-91.2a71,71,0,1,1,118.22-.67L454.37,403.37l96.89-232.11a20.2,20.2,0,0,1-4-28.38L435.48-5.46a72.9,72.9,0,0,0-23,8.49L37,219.87A72.86,72.86,0,0,0,6.59,253.93Z"/></g></g></svg>